<?xml version="1.0" encoding="UTF-8"?>
<svg width="51px" height="51px" viewBox="0 0 51 51" version="1.1" xmlns="http://www.w3.org/2000/svg" xmlns:xlink="http://www.w3.org/1999/xlink">
    <title>icon</title>
    <defs>
        <path d="M22.8369531,3.80791667 C22.7136198,3.80791667 22.5902864,3.77708333 22.4823698,3.71541667 C19.5223698,2.18916667 16.9632031,1.54166667 13.8952864,1.54166667 C10.8427864,1.54166667 7.94445311,2.26625 5.30820311,3.71541667 C4.93820311,3.91583333 4.47570311,3.77708333 4.25986977,3.40708333 C4.05945311,3.03708333 4.19820311,2.55916667 4.56820311,2.35875 C7.43570311,0.801666667 10.5807031,-1.77635684e-15 13.8952864,-1.77635684e-15 C17.1790364,-1.77635684e-15 20.0465364,0.724583333 23.1915364,2.34333333 C23.5769531,2.54375 23.7157031,3.00625 23.5152864,3.37625 C23.3765364,3.65375 23.1144531,3.80791667 22.8369531,3.80791667 L22.8369531,3.80791667 Z M0.775703107,11.9016667 C0.62153644,11.9016667 0.467369774,11.8554167 0.328619774,11.7629167 C-0.0259635597,11.51625 -0.103046893,11.0383333 0.143619774,10.68375 C1.66986977,8.52541667 3.61236977,6.82958333 5.92486977,5.6425 C10.7657031,3.145 16.9632031,3.12958333 21.8194531,5.62708333 C24.1319531,6.81416667 26.0744531,8.49458333 27.6007031,10.6375 C27.8473698,10.9766667 27.7702864,11.47 27.4157031,11.7166667 C27.0611198,11.9633333 26.5832031,11.88625 26.3365364,11.5316667 C24.9490364,9.58916667 23.1915364,8.06291667 21.1102864,6.99916667 C16.6857031,4.73291667 11.0277864,4.73291667 6.61861977,7.01458333 C4.52195311,8.09375 2.76445311,9.63541667 1.37695311,11.5779167 C1.25361977,11.79375 1.02236977,11.9016667 0.775703107,11.9016667 L0.775703107,11.9016667 Z M10.4111198,30.5095833 C10.2107031,30.5095833 10.0102864,30.4325 9.87153644,30.2783333 C8.53028644,28.9370833 7.80570311,28.07375 6.77278644,26.2083333 C5.70903644,24.3120833 5.15403644,21.9995833 5.15403644,19.5175 C5.15403644,14.93875 9.06986977,11.2079167 13.8798698,11.2079167 C18.6898698,11.2079167 22.6057031,14.93875 22.6057031,19.5175 C22.6057031,19.9491667 22.2665364,20.2883333 21.8348698,20.2883333 C21.4032031,20.2883333 21.0640364,19.9491667 21.0640364,19.5175 C21.0640364,15.7866667 17.8419531,12.7495833 13.8798698,12.7495833 C9.91778644,12.7495833 6.69570311,15.7866667 6.69570311,19.5175 C6.69570311,21.7375 7.18903644,23.7879167 8.12945311,25.4529167 C9.11611977,27.2258333 9.79445311,27.98125 10.9815364,29.18375 C11.2744531,29.4920833 11.2744531,29.97 10.9815364,30.2783333 C10.8119531,30.4325 10.6115364,30.5095833 10.4111198,30.5095833 L10.4111198,30.5095833 Z M21.4648698,27.6575 C19.6302864,27.6575 18.0115364,27.195 16.6857031,26.2854167 C14.3886198,24.7283333 13.0165364,22.2 13.0165364,19.5175 C13.0165364,19.0858333 13.3557031,18.7466667 13.7873698,18.7466667 C14.2190364,18.7466667 14.5582031,19.0858333 14.5582031,19.5175 C14.5582031,21.69125 15.6682031,23.7416667 17.5490364,25.0058333 C18.6436198,25.7458333 19.9232031,26.1004167 21.4648698,26.1004167 C21.8348698,26.1004167 22.4515364,26.0541667 23.0682031,25.94625 C23.4844531,25.8691667 23.8852864,26.1466667 23.9623698,26.5783333 C24.0394531,26.9945833 23.7619531,27.3954167 23.3302864,27.4725 C22.4515364,27.6420833 21.6807031,27.6575 21.4648698,27.6575 L21.4648698,27.6575 Z M18.3661198,30.8333333 C18.3044531,30.8333333 18.2273698,30.8179167 18.1657031,30.8025 C15.7144531,30.1241667 14.1111198,29.2145833 12.4307031,27.565 C10.2723698,25.4220833 9.08528644,22.57 9.08528644,19.5175 C9.08528644,17.02 11.2127864,14.985 13.8336198,14.985 C16.4544531,14.985 18.5819531,17.02 18.5819531,19.5175 C18.5819531,21.1670833 20.0157031,22.5083333 21.7886198,22.5083333 C23.5615364,22.5083333 24.9952864,21.1670833 24.9952864,19.5175 C24.9952864,13.7054167 19.9848698,8.98791667 13.8182031,8.98791667 C9.43986977,8.98791667 5.43153644,11.42375 3.62778644,15.2008333 C3.02653644,16.4495833 2.71820311,17.9141667 2.71820311,19.5175 C2.71820311,20.72 2.82611977,22.61625 3.75111977,25.0829167 C3.90528644,25.48375 3.70486977,25.9308333 3.30403644,26.0695833 C2.90320311,26.22375 2.45611977,26.0079167 2.31736977,25.6225 C1.56195311,23.6029167 1.19195311,21.59875 1.19195311,19.5175 C1.19195311,17.6675 1.54653644,15.9870833 2.24028644,14.5225 C4.29070311,10.22125 8.83861977,7.43083333 13.8182031,7.43083333 C20.8327864,7.43083333 26.5369531,12.8420833 26.5369531,19.5020833 C26.5369531,21.9995833 24.4094531,24.0345833 21.7886198,24.0345833 C19.1677864,24.0345833 17.0402864,21.9995833 17.0402864,19.5020833 C17.0402864,17.8525 15.6065364,16.51125 13.8336198,16.51125 C12.0607031,16.51125 10.6269531,17.8525 10.6269531,19.5020833 C10.6269531,22.1383333 11.6444531,24.605 13.5098698,26.455 C14.9744531,27.9041667 16.3773698,28.7058333 18.5511198,29.3070833 C18.9673698,29.415 19.1986198,29.8466667 19.0907031,30.2475 C19.0136198,30.6020833 18.6898698,30.8333333 18.3661198,30.8333333 L18.3661198,30.8333333 Z" id="path-1"></path>
        <rect id="path-3" x="0" y="0" width="77.0833333" height="77.0833333"></rect>
    </defs>
    <g id="PROTOBOX-NETBOX" stroke="none" stroke-width="1" fill="none" fill-rule="evenodd">
        <g id="Artboard" transform="translate(-69.000000, -92.000000)">
            <g id="icon" transform="translate(69.000000, 92.000000)">
                <polygon id="Polygon" fill="#000000" points="25.5 0 47.5836478 12.75 47.5836478 38.25 25.5 51 3.4163522 38.25 3.4163522 12.75"></polygon>
                <g id="ic_fingerprint" transform="translate(11.620130, 10.083333)">
                    <mask id="mask-2" fill="white">
                        <use xlink:href="#path-1"></use>
                    </mask>
                    <g id="Mask"></g>
                    <g id="🎨-Color" mask="url(#mask-2)">
                        <g transform="translate(-24.661797, -23.125000)">
                            <mask id="mask-4" fill="white">
                                <use xlink:href="#path-3"></use>
                            </mask>
                            <use id="Black" stroke="none" fill="#17EAD9" fill-rule="evenodd" xlink:href="#path-3"></use>
                        </g>
                    </g>
                </g>
            </g>
        </g>
    </g>
</svg>